<?xml version="1.0"?>
<svg xmlns="http://www.w3.org/2000/svg" xmlns:xlink="http://www.w3.org/1999/xlink" xmlns:svgjs="http://svgjs.com/svgjs" version="1.1" width="512" height="512" x="0" y="0" viewBox="0 0 433.633 433.633" style="enable-background:new 0 0 512 512" xml:space="preserve" class=""><g>
<path xmlns="http://www.w3.org/2000/svg" style="" d="M369.894,280.555c-35.004,0-63.739-28.735-63.739-63.739s28.735-63.739,63.739-63.739  s63.739,28.735,63.739,63.739S404.898,280.555,369.894,280.555z M369.894,184.424c-17.763,0-32.392,14.629-32.392,32.392  s14.629,32.392,32.392,32.392c17.763,0,32.392-14.629,32.392-32.392S387.657,184.424,369.894,184.424z" fill="#64efff" data-original="#1185e0" class=""/>
<path xmlns="http://www.w3.org/2000/svg" style="" d="M216.816,280.555c-35.004,0-63.739-28.735-63.739-63.739s28.735-63.739,63.739-63.739  s63.739,28.735,63.739,63.739S251.82,280.555,216.816,280.555z M216.816,184.424c-17.763,0-32.392,14.629-32.392,32.392  s14.629,32.392,32.392,32.392s32.392-14.629,32.392-32.392S234.58,184.424,216.816,184.424z" fill="#00e5ff" data-original="#4dcfe0" class=""/>
<path xmlns="http://www.w3.org/2000/svg" style="" d="M63.739,280.555C28.735,280.555,0,251.82,0,216.816s28.735-63.739,63.739-63.739  s63.739,28.735,63.739,63.739S98.743,280.555,63.739,280.555z M63.739,184.424c-17.763,0-32.392,14.629-32.392,32.392  s14.629,32.392,32.392,32.392s32.392-14.629,32.392-32.392S81.502,184.424,63.739,184.424z" fill="#64efff" data-original="#1185e0" class=""/>
<g xmlns="http://www.w3.org/2000/svg">
</g>
<g xmlns="http://www.w3.org/2000/svg">
</g>
<g xmlns="http://www.w3.org/2000/svg">
</g>
<g xmlns="http://www.w3.org/2000/svg">
</g>
<g xmlns="http://www.w3.org/2000/svg">
</g>
<g xmlns="http://www.w3.org/2000/svg">
</g>
<g xmlns="http://www.w3.org/2000/svg">
</g>
<g xmlns="http://www.w3.org/2000/svg">
</g>
<g xmlns="http://www.w3.org/2000/svg">
</g>
<g xmlns="http://www.w3.org/2000/svg">
</g>
<g xmlns="http://www.w3.org/2000/svg">
</g>
<g xmlns="http://www.w3.org/2000/svg">
</g>
<g xmlns="http://www.w3.org/2000/svg">
</g>
<g xmlns="http://www.w3.org/2000/svg">
</g>
<g xmlns="http://www.w3.org/2000/svg">
</g>
</g></svg>
